<?xml version="1.0" encoding="utf-8"?>
<svg xmlns="http://www.w3.org/2000/svg" width="122.071" height="130.201" viewBox="0 0 122.071 130.201">
  <g id="_28-prize" data-name="28-prize" transform="translate(-15.985)">
    <path id="Path_48" data-name="Path 48" d="M393.881,34.585a2.035,2.035,0,0,1-.492-4.009,32.543,32.543,0,0,0,13.3-7.6c6.47-6.47,7.463-15.143,7.569-18.905H393.883a2.034,2.034,0,0,1,0-4.069h22.378a2.035,2.035,0,0,1,2.028,1.869c.047.576,1.038,14.218-8.727,23.982a36.168,36.168,0,0,1-15.186,8.673A2.043,2.043,0,0,1,393.881,34.585Z" transform="translate(-280.282)" fill="#248332"/>
    <path id="Path_49" data-name="Path 49" d="M40.441,34.585a2.034,2.034,0,0,1-.495-.061A36.172,36.172,0,0,1,24.76,25.851C15,16.087,15.986,2.445,16.033,1.869A2.035,2.035,0,0,1,18.061,0H40.44a2.034,2.034,0,0,1,0,4.069H20.074c.115,3.768,1.123,12.465,7.563,18.905a32.54,32.54,0,0,0,13.3,7.6,2.035,2.035,0,0,1-.495,4.008Z" transform="translate(0)" fill="#248332"/>
    <path id="Path_50" data-name="Path 50" d="M181.871,1.988A2.035,2.035,0,0,0,179.837,0H107.261a2.034,2.034,0,0,0-2.034,1.988c-.029,1.3-.641,32.1,6.278,47.663,6.014,13.532,19.063,17.7,25.941,18.973v44.044L122.3,120.243a2.033,2.033,0,0,0-1.123,1.82h0V124.1h44.756v-2.034h0a2.033,2.033,0,0,0-1.123-1.82l-15.151-7.575V68.624c6.878-1.273,19.927-5.441,25.941-18.973C182.512,34.084,181.9,3.292,181.871,1.988Z" transform="translate(-66.529)" fill="#d7f2a3"/>
    <path id="Path_51" data-name="Path 51" d="M127.58,122.063a2.034,2.034,0,0,1,1.123-1.82l11.812-6.985a2.034,2.034,0,0,0,1-1.751v-42.7a2.029,2.029,0,0,0-1.6-1.987c-6.691-1.423-15.218-4.657-20.778-17.167-6.919-15.568-6.307-46.36-6.278-47.663A2.034,2.034,0,0,1,114.892,0h-7.631a2.034,2.034,0,0,0-2.034,1.988c-.029,1.3-.641,32.1,6.278,47.663,6.014,13.532,19.063,17.7,25.941,18.973v44.044L122.3,120.243a2.033,2.033,0,0,0-1.123,1.82h0V124.1h6.409v-2.034h0Z" transform="translate(-66.529)" fill="#8abb2a"/>
    <path id="Path_52" data-name="Path 52" d="M212.756,488H168v4.069a2.034,2.034,0,0,0,2.034,2.034h40.688a2.034,2.034,0,0,0,2.034-2.034Z" transform="translate(-113.358 -363.902)" fill="#d7f2a3"/>
    <path id="Path_53" data-name="Path 53" d="M174.1,492.069V488H168v4.069a2.034,2.034,0,0,0,2.034,2.034h6.1A2.034,2.034,0,0,1,174.1,492.069Z" transform="translate(-113.358 -363.902)" fill="#8abb2a"/>
    <path id="Path_54" data-name="Path 54" d="M320.652,312.648,296,324.136V311.93l23.079-10.859a1.017,1.017,0,0,1,1.192,1.555l-3.927,5.235,4.494,3A1.017,1.017,0,0,1,320.652,312.648Z" transform="translate(-208.808 -224.452)" fill="#85c113"/>
    <path id="Path_55" data-name="Path 55" d="M302.1,344,296,356.206V344Z" transform="translate(-208.808 -256.521)" fill="#7ca828"/>
    <path id="Path_56" data-name="Path 56" d="M126.8,396.323l20.559-12.068V372.048l-22.845,13.211a1.017,1.017,0,0,0-.109,1.756l4.645,2.313-3.518,5.474A1.017,1.017,0,0,0,126.8,396.323Z" transform="translate(-80.513 -277.437)" fill="#85c113"/>
    <path id="Path_57" data-name="Path 57" d="M198.1,396.186l-6.1-5.1,6.1-3.039Z" transform="translate(-131.255 -289.368)" fill="#7ca828"/>
    <path id="Path_58" data-name="Path 58" d="M224.55,309.781,192,324.021V312.48a1.017,1.017,0,0,1,.61-.932L223.125,298.2a1.017,1.017,0,0,1,1.425.932Z" transform="translate(-131.255 -222.302)" fill="#97db15"/>
  </g>
</svg>
